<svg xmlns="http://www.w3.org/2000/svg" width="352" height="80" viewBox="0 0 176 40" fill="none">
  <defs><mask id="layers" maskUnits="userSpaceOnUse" x="0" y="0" width="40" height="40"><rect x="0" y="4.00" width="40" height="3.35" fill="#fff"/><rect x="0" y="8.30" width="40" height="3.35" fill="#fff"/><rect x="0" y="12.60" width="40" height="3.35" fill="#fff"/><rect x="0" y="16.90" width="40" height="3.35" fill="#fff"/><rect x="0" y="21.20" width="40" height="3.35" fill="#fff"/><rect x="0" y="25.50" width="40" height="3.35" fill="#fff"/><rect x="0" y="29.80" width="40" height="3.35" fill="#fff"/><rect x="0" y="34.10" width="40" height="3.35" fill="#fff"/></mask></defs>
  <g mask="url(#layers)">
  <path d="M22.62 12.63 A10.25 10.25 0 1 0 22.62 27.37" fill="none" stroke="#8f7dff" stroke-width="7.2"/>
  <path d="M15.5 16.9 H36.9 a1.675 1.675 0 0 1 0 3.35 H15.5 Z" fill="#8f7dff"/>
  <rect x="27.6" y="20" width="3.2" height="4.55" fill="#8f7dff"/>
  <rect x="32.8" y="20" width="3.2" height="3.4" fill="#8f7dff"/></g>
  <path d="M59.75 29.92Q57.23 29.92 55.28 28.77Q53.33 27.63 52.21 25.47Q51.09 23.31 51.09 20.30Q51.09 17.36 52.17 15.19Q53.25 13.02 55.21 11.82Q57.18 10.62 59.83 10.62Q63.44 10.62 65.44 12.40Q67.45 14.19 68.04 17.49L63.94 17.64Q63.62 15.90 62.58 14.93Q61.54 13.95 59.83 13.95Q57.62 13.95 56.40 15.68Q55.17 17.41 55.17 20.30Q55.17 23.21 56.42 24.90Q57.67 26.59 59.80 26.59Q61.65 26.59 62.69 25.54Q63.73 24.48 63.99 22.61L68.12 22.77Q67.55 26.15 65.46 28.03Q63.36 29.92 59.75 29.92M74.15 29.50L70.20 29.50L70.20 11.04L74.15 11.04L74.15 18.55L81.15 18.55L81.15 11.04L85.10 11.04L85.10 29.50L81.15 29.50L81.15 21.88L74.15 21.88L74.15 29.50M90.82 29.50L86.74 29.50L93.39 11.04L98.07 11.04L104.73 29.50L100.62 29.50L99.27 25.57L92.17 25.57L90.82 29.50M95.73 15.20L93.29 22.32L98.18 22.32L95.73 15.20M113.54 29.50L108.89 29.50L102.23 11.04L106.32 11.04L111.23 25.05L116.14 11.04L120.23 11.04L113.54 29.50M125.37 29.50L121.42 29.50L121.42 11.04L125.37 11.04L125.37 29.50M131.43 29.50L126.83 29.50L133.10 20.24L126.88 11.04L131.46 11.04L135.49 17.25L139.41 11.04L144.02 11.04L137.80 20.19L144.09 29.50L139.49 29.50L135.44 23.18" fill="#ffffff"/>
  <rect x="151.09" y="15.2" width="22.39" height="14" rx="3.5" fill="none" stroke="#ffffff" stroke-width="1.4"/>
  <path d="M158.98 26.38Q157.63 26.38 156.92 25.73Q156.20 25.08 156.15 24.05L157.38 23.97Q157.45 24.67 157.89 24.96Q158.33 25.26 158.99 25.26Q159.44 25.26 159.83 25.12Q160.22 24.98 160.45 24.68Q160.69 24.38 160.69 23.88Q160.69 23.14 160.22 22.78Q159.75 22.43 159 22.43L158.37 22.43L158.37 21.35L159 21.35Q159.58 21.35 160 21.08Q160.41 20.81 160.41 20.17Q160.41 19.58 160.05 19.28Q159.69 18.98 159.02 18.98Q158.33 18.98 157.97 19.27Q157.62 19.55 157.55 20.06L156.31 19.98Q156.42 19.02 157.12 18.44Q157.81 17.85 159.03 17.85Q160.24 17.85 160.95 18.44Q161.67 19.04 161.67 20.07Q161.67 21.38 160.29 21.82Q161.07 22.03 161.51 22.58Q161.94 23.13 161.94 23.91Q161.94 24.69 161.57 25.25Q161.19 25.80 160.52 26.09Q159.85 26.38 158.98 26.38M165.44 26.20L163.45 26.20L163.45 18.04L165.44 18.04Q166.52 18.04 167.32 18.51Q168.12 18.99 168.55 19.90Q168.98 20.82 168.98 22.13Q168.98 23.44 168.55 24.35Q168.12 25.26 167.32 25.73Q166.52 26.20 165.44 26.20M164.66 19.17L164.66 25.06L165.40 25.06Q166.51 25.06 167.12 24.33Q167.73 23.60 167.73 22.13Q167.73 20.66 167.12 19.92Q166.51 19.17 165.40 19.17" fill="#ffffff"/>
</svg>